# xmcd
#
# Track frame offsets:
#	150
#	21670
#	45097
#	64065
#	85865
#	105045
#	128702
#	147797
#	167490
#	186650
#
# Disc length: 2774 seconds
#
# Revision: 1
# Processed by: cddbd v1.4PL0 Copyright (c) Steve Scherf et al.
# Submitted via: EasyCDDAExtractor 5.0.6
#
DISCID=7b0ad40a
DTITLE=那英 - 如今...
DYEAR=2002
DGENRE=Pop
TTITLE0=如今... Till Now...
TTITLE1=愛上你等於愛上寂寞 Love You But Lonely
TTITLE2=至少 At Least
TTITLE3=離不開 Can't Leave
TTITLE4=一千一萬遍 Thousands Times
TTITLE5=你從未離開 Never Left
TTITLE6=No More
TTITLE7=一切都變了 All Changed
TTITLE8=身不由己 Involuntarily
TTITLE9=留言 Massage
EXTD=
EXTT0=
EXTT1=
EXTT2=
EXTT3=
EXTT4=
EXTT5=
EXTT6=
EXTT7=
EXTT8=
EXTT9=
PLAYORDER=
